<?xml version="1.0" encoding="UTF-8"?> <svg xmlns="http://www.w3.org/2000/svg" id="Layer_1" data-name="Layer 1" viewBox="0 0 2296.13 720"> <defs> <style>.cls-1{fill:#dbc7b2;}</style> </defs> <title>SR_data_logoline_white</title> <path class="cls-1" d="M1808.41,38.65a104.76,104.76,0,1,0,0,132.22v38.65H1832V0h-23.57ZM1727.23,186a81.19,81.19,0,1,1,81.19-81.19A81.28,81.28,0,0,1,1727.23,186Z"></path> <polygon class="cls-1" points="1956.6 0 1880.52 0 1880.52 23.76 1956.6 23.76 1956.6 209.52 1980.36 209.52 1980.36 23.76 2056.44 23.76 2056.44 0 1980.36 0 1956.6 0"></polygon> <path class="cls-1" d="M2272.57,0V38.65a104.76,104.76,0,1,0,0,132.22v38.65h23.57V0ZM2191.38,186a81.19,81.19,0,1,1,81.19-81.19A81.28,81.28,0,0,1,2191.38,186Z"></path> <path class="cls-1" d="M1473.7,0H1368.94V209.52H1473.7A104.76,104.76,0,0,0,1473.7,0Zm0,185.94h-81.19V21.28h81.19c44.77,0,81.19,38.71,81.19,83.48A81.28,81.28,0,0,1,1473.7,185.94Z"></path> <path class="cls-1" d="M516.89,298.83H258.6c-39,0-74.93-24.53-86.13-61.92a83.85,83.85,0,0,1,1.78-54.24c12.68-33.33,46-54.29,81.62-54.29h245.6L606.28.59H249.5C134.25,2.28,41,96.57,41,212.2A211.29,211.29,0,0,0,66.76,313.57c36.91,67.75,109.65,108.19,186.8,108.19H511.84c39,0,74.93,24.53,86.13,61.91a83.86,83.86,0,0,1-1.78,54.24c-12.68,33.33-46,54.29-81.62,54.29H106L0,720H521c115.24-1.68,208.48-96,208.48-211.61A211.32,211.32,0,0,0,703.68,407C666.78,339.27,594,298.83,516.89,298.83Z"></path> <path class="cls-1" d="M1106.84,177.09a83.85,83.85,0,0,1,3.63,61.45c-11.65,36.33-46.36,60.29-84.51,60.29H906.78l-96.94,117.5L1060.52,720h188.62L1003.86,421.76h26c77.15,0,149.89-40.44,186.8-108.19a211.29,211.29,0,0,0,25.76-101.37c0-115.63-93.25-209.93-208.49-211.61H778.19L672.27,128.39h356.44C1061.91,128.39,1092.86,147,1106.84,177.09Z"></path> </svg> 